# xmcd
#
# Track frame offsets: 
#        150
#        14137
#        26896
#        36638
#        51224
#        64882
#        76306
#        91070
#        104728
#        122194
#        138186
#        149820
#
# Disc length: 2129 seconds
#
# Revision: 0
# Processed by: cddbd v1.5.1PL2 Copyright (c) Steve Scherf et al.
# Submitted via: ExactAudioCopy v0.95a5
#
DISCID=b9084f0c
DTITLE=Lorraine Jordan - Road Trip for the Lord
DYEAR=2000
DGENRE=Bluegrass
TTITLE0=Dancing With the Angels
TTITLE1=Lessons of the Book
TTITLE2=Soldier"s Farewell
TTITLE3=He's My Rock
TTITLE4=I Like the Old Time Way
TTITLE5=To Be Near Mom and Dad
TTITLE6=Jesus Teach Me to Pray
TTITLE7=I'm Ready to Go
TTITLE8=Jesus Hold My Hand
TTITLE9=Road Trip for The Lord
TTITLE10=His Name is Jesus
TTITLE11=Amazing Grace
EXTD=
EXTT0=
EXTT1=
EXTT2=
EXTT3=
EXTT4=
EXTT5=
EXTT6=
EXTT7=
EXTT8=
EXTT9=
EXTT10=
EXTT11=
PLAYORDER=
